---
---

{% assign repo = site.data.data_github.repo_list | where: "name", "blind_watermark" | first%}

<svg width="400" height="150" viewBox="0 0 400 150" fill="none" xmlns="http://www.w3.org/2000/svg" role="img">
<style>
.header {
  font: 600 18px 'Segoe UI', Ubuntu, Sans-Serif;
  fill: #fe428e;
  animation: fadeInAnimation 0.8s ease-in-out forwards;
}
.description { font: 400 13px 'Segoe UI', Ubuntu, Sans-Serif; fill: #a9fef7 }
.gray { font: 400 12px 'Segoe UI', Ubuntu, Sans-Serif; fill: #a9fef7 }
.icon { fill: #f8d847 }
</style>



<rect x="0.5" y="0.5" rx="4.5" height="99%" stroke="#e4e2e2" width="399" fill="#141321" stroke-opacity="1"/>


<g transform="translate(25, 35)">

<g transform="translate(0, 0)">
<svg class="icon" x="0" y="-13" viewBox="0 0 16 16" version="1.1" width="16" height="16">
  <path fill-rule="evenodd" d="M2 2.5A2.5 2.5 0 014.5 0h8.75a.75.75 0 01.75.75v12.5a.75.75 0 01-.75.75h-2.5a.75.75 0 110-1.5h1.75v-2h-8a1 1 0 00-.714 1.7.75.75 0 01-1.072 1.05A2.495 2.495 0 012 11.5v-9zm10.5-1V9h-8c-.356 0-.694.074-1 .208V2.5a1 1 0 011-1h8zM5 12.25v3.25a.25.25 0 00.4.2l1.45-1.087a.25.25 0 01.3 0L8.6 15.7a.25.25 0 00.4-.2v-3.25a.25.25 0 00-.25-.25h-3.5a.25.25 0 00-.25.25z"/>
</svg>
</g>

<g transform="translate(25, 0)">
<text x="0" y="0" class="header">{{ repo.name }}</text>
</g>
</g>


<g transform="translate(0, 55)">

<text xmlns="http://www.w3.org/2000/svg" class="description" x="25" y="-5">
<tspan dy="1.2em" x="25">Blind&amp;Invisible Watermark</tspan><tspan dy="1.2em" x="25">图片盲水印</tspan><tspan dy="1.2em" x="25">提取水印无须原图！</tspan>
</text>

<g transform="translate(30, 75)">
<g transform="translate(0, 0)">
<g>
<circle cx="0" cy="-5" r="6" fill="#3572A5" />
<text class="gray" x="15">{{repo.language}}</text>
</g>
</g>

<g transform="translate(62, 0)"><g transform="translate(0, 0)">
<svg class="icon" y="-12" viewBox="0 0 16 16" version="1.1" width="16" height="16">
<path fill-rule="evenodd" d="M8 .25a.75.75 0 01.673.418l1.882 3.815 4.21.612a.75.75 0 01.416 1.279l-3.046 2.97.719 4.192a.75.75 0 01-1.088.791L8 12.347l-3.766 1.98a.75.75 0 01-1.088-.79l.72-4.194L.818 6.374a.75.75 0 01.416-1.28l4.21-.611L7.327.668A.75.75 0 018 .25zm0 2.445L6.615 5.5a.75.75 0 01-.564.41l-3.097.45 2.24 2.184a.75.75 0 01.216.664l-.528 3.084 2.769-1.456a.75.75 0 01.698 0l2.77 1.456-.53-3.084a.75.75 0 01.216-.664l2.24-2.183-3.096-.45a.75.75 0 01-.564-.41L8 2.694v.001z"/>
</svg>
</g>

<g transform="translate(20, 0)"><text class="gray">{{ repo.star_cnt }} </text></g></g><g transform="translate(126, 0)"><g transform="translate(0, 0)">

<svg class="icon" y="-12" viewBox="0 0 16 16" version="1.1" width="16" height="16">
  <path fill-rule="evenodd" d="M5 3.25a.75.75 0 11-1.5 0 .75.75 0 011.5 0zm0 2.122a2.25 2.25 0 10-1.5 0v.878A2.25 2.25 0 005.75 8.5h1.5v2.128a2.251 2.251 0 101.5 0V8.5h1.5a2.25 2.25 0 002.25-2.25v-.878a2.25 2.25 0 10-1.5 0v.878a.75.75 0 01-.75.75h-4.5A.75.75 0 015 6.25v-.878zm3.75 7.378a.75.75 0 11-1.5 0 .75.75 0 011.5 0zm3-8.75a.75.75 0 100-1.5.75.75 0 000 1.5z"></path>
</svg>
</g>

<g transform="translate(20, 0)">
<text class="gray">{{ repo.fork_cnt }}</text></g></g>
</g>

</g>
</svg>